<?xml version="1.0" standalone="no"?>
<!DOCTYPE svg PUBLIC "-//W3C//DTD SVG 20010904//EN"
 "http://www.w3.org/TR/2001/REC-SVG-20010904/DTD/svg10.dtd">
<svg version="1.0" xmlns="http://www.w3.org/2000/svg"
 width="512.000000pt" height="512.000000pt" viewBox="0 0 512.000000 512.000000"
 preserveAspectRatio="xMidYMid meet">
<metadata>
Created by potrace 1.14, written by Peter Selinger 2001-2017
</metadata>
<g transform="translate(0.000000,512.000000) scale(0.100000,-0.100000)"
fill="#000000" stroke="none">
<path d="M2402 5109 c-1284 -77 -2316 -1115 -2391 -2404 -70 -1212 711 -2298
1884 -2620 249 -68 346 -80 670 -80 259 0 304 3 418 23 1099 198 1911 1010
2109 2109 20 114 23 159 23 418 0 324 -12 421 -80 670 -323 1178 -1412 1957
-2633 1884z m1731 -1292 c47 -20 95 -64 120 -111 l22 -41 3 -1093 c2 -754 -1
-1106 -8 -1133 -14 -50 -73 -117 -125 -140 -38 -18 -112 -19 -1580 -19 -1475
0 -1542 1 -1581 19 -51 23 -108 90 -123 144 -9 31 -11 330 -9 1132 l3 1090 22
41 c24 46 72 90 118 110 45 20 3091 20 3138 1z"/>
<path d="M3913 3676 c-68 -31 -80 -121 -22 -170 77 -65 188 4 163 101 -15 62
-83 94 -141 69z"/>
<path d="M2682 2788 c-264 -574 -472 -1033 -472 -1040 0 -5 41 -7 91 -6 l91 3
254 555 c139 305 260 570 269 588 l15 32 -94 0 -93 0 -61 -132z"/>
<path d="M1757 2623 l-308 -146 3 -90 3 -90 305 -143 c167 -79 308 -144 312
-144 5 0 7 43 6 95 l-3 95 -190 91 c-104 49 -193 93 -197 97 -4 4 82 48 190
97 l197 91 3 97 c1 53 -1 97 -5 96 -4 0 -147 -66 -316 -146z"/>
<path d="M3052 2674 l3 -98 197 -90 c109 -50 194 -94 190 -98 -4 -4 -92 -47
-197 -96 l-190 -90 -3 -96 c-1 -53 1 -96 6 -96 4 0 145 65 312 144 l305 143 3
90 3 90 -303 143 c-167 78 -309 145 -316 147 -10 4 -12 -16 -10 -93z"/>
</g>
</svg>
